<svg width="40" height="40" fill="none" xmlns="http://www.w3.org/2000/svg"><path d="M37.921.507H1.735C.865.507.16 1.21.16 2.08v36.186c0 .87.704 1.574 1.574 1.574H37.92c.87 0 1.574-.704 1.574-1.574V2.08c0-.87-.704-1.573-1.574-1.573zM11.83 34.023H5.993V15.252h5.836v18.771zM8.913 12.685a3.383 3.383 0 113.383-3.383 3.389 3.389 0 01-3.383 3.383zm24.765 21.338h-5.831v-9.13c0-2.178-.04-4.976-3.034-4.976-3.033 0-3.5 2.37-3.5 4.819v9.287h-5.826V15.252h5.595v2.566h.078c.777-1.475 2.68-3.034 5.522-3.034 5.91 0 6.996 3.89 6.996 8.944v10.295z" fill="#fff"/></svg>